<?xml version="1.0" encoding="UTF-8"?>
<svg xmlns="http://www.w3.org/2000/svg" version="1.1" width="100" height="100" viewBox="0 0 100 100"><rect x="0" y="0" width="100" height="100" fill="#ffffff"/><g transform="scale(4.762)"><g transform="translate(0,0)"><path fill-rule="evenodd" d="M8 0L8 1L9 1L9 2L8 2L8 5L11 5L11 4L12 4L12 3L13 3L13 0L12 0L12 3L11 3L11 2L10 2L10 0ZM9 2L9 4L11 4L11 3L10 3L10 2ZM8 6L8 7L9 7L9 8L8 8L8 11L9 11L9 13L8 13L8 12L6 12L6 11L7 11L7 10L5 10L5 9L4 9L4 8L0 8L0 9L3 9L3 11L2 11L2 10L1 10L1 11L0 11L0 12L2 12L2 13L3 13L3 12L4 12L4 10L5 10L5 13L8 13L8 14L10 14L10 11L11 11L11 10L10 10L10 9L11 9L11 6L10 6L10 7L9 7L9 6ZM12 6L12 7L13 7L13 6ZM6 8L6 9L7 9L7 8ZM9 8L9 9L10 9L10 8ZM13 8L13 9L12 9L12 12L11 12L11 13L12 13L12 12L13 12L13 9L14 9L14 8ZM16 8L16 10L15 10L15 12L14 12L14 13L13 13L13 14L14 14L14 15L11 15L11 16L10 16L10 15L9 15L9 16L10 16L10 17L8 17L8 21L9 21L9 20L11 20L11 21L14 21L14 20L15 20L15 17L14 17L14 18L13 18L13 19L12 19L12 18L10 18L10 17L12 17L12 16L14 16L14 15L16 15L16 16L17 16L17 18L18 18L18 19L17 19L17 20L16 20L16 21L17 21L17 20L18 20L18 21L19 21L19 20L18 20L18 19L19 19L19 18L20 18L20 17L19 17L19 14L18 14L18 11L16 11L16 10L17 10L17 9L18 9L18 10L19 10L19 11L20 11L20 12L21 12L21 8L20 8L20 10L19 10L19 8ZM9 10L9 11L10 11L10 10ZM16 12L16 13L15 13L15 14L16 14L16 13L17 13L17 12ZM17 14L17 15L18 15L18 14ZM20 15L20 16L21 16L21 15ZM18 17L18 18L19 18L19 17ZM9 18L9 19L10 19L10 18ZM13 19L13 20L14 20L14 19ZM20 19L20 20L21 20L21 19ZM0 0L0 7L7 7L7 0ZM1 1L1 6L6 6L6 1ZM2 2L2 5L5 5L5 2ZM14 0L14 7L21 7L21 0ZM15 1L15 6L20 6L20 1ZM16 2L16 5L19 5L19 2ZM0 14L0 21L7 21L7 14ZM1 15L1 20L6 20L6 15ZM2 16L2 19L5 19L5 16Z" fill="#000000"/></g></g></svg>
