<?xml version="1.0" encoding="UTF-8"?>
<svg xmlns="http://www.w3.org/2000/svg" version="1.1" width="100" height="100" viewBox="0 0 100 100"><rect x="0" y="0" width="100" height="100" fill="#ffffff"/><g transform="scale(4.762)"><g transform="translate(0,0)"><path fill-rule="evenodd" d="M10 0L10 2L9 2L9 1L8 1L8 2L9 2L9 3L8 3L8 4L10 4L10 5L8 5L8 7L9 7L9 6L10 6L10 8L6 8L6 9L5 9L5 8L0 8L0 10L1 10L1 9L2 9L2 10L3 10L3 11L1 11L1 12L2 12L2 13L4 13L4 11L5 11L5 13L8 13L8 15L10 15L10 16L8 16L8 21L9 21L9 19L10 19L10 21L11 21L11 19L12 19L12 21L13 21L13 19L15 19L15 20L14 20L14 21L15 21L15 20L16 20L16 21L17 21L17 20L19 20L19 21L20 21L20 20L19 20L19 18L20 18L20 17L16 17L16 18L17 18L17 19L15 19L15 18L11 18L11 19L10 19L10 18L9 18L9 17L10 17L10 16L12 16L12 17L15 17L15 16L16 16L16 15L15 15L15 16L14 16L14 15L13 15L13 14L17 14L17 16L19 16L19 15L20 15L20 14L21 14L21 13L20 13L20 10L21 10L21 9L20 9L20 8L19 8L19 9L18 9L18 8L17 8L17 9L16 9L16 8L15 8L15 10L17 10L17 12L14 12L14 10L12 10L12 9L14 9L14 8L12 8L12 9L10 9L10 8L11 8L11 6L12 6L12 7L13 7L13 5L11 5L11 4L13 4L13 3L12 3L12 2L13 2L13 1L11 1L11 0ZM10 2L10 4L11 4L11 2ZM3 9L3 10L4 10L4 9ZM6 9L6 10L7 10L7 9ZM9 9L9 10L10 10L10 9ZM17 9L17 10L18 10L18 11L19 11L19 10L18 10L18 9ZM6 11L6 12L8 12L8 13L9 13L9 12L8 12L8 11ZM10 11L10 13L11 13L11 14L10 14L10 15L11 15L11 14L13 14L13 13L14 13L14 12L13 12L13 13L12 13L12 12L11 12L11 11ZM18 12L18 13L17 13L17 14L18 14L18 15L19 15L19 14L20 14L20 13L19 13L19 12ZM18 13L18 14L19 14L19 13ZM12 15L12 16L13 16L13 15ZM0 0L0 7L7 7L7 0ZM1 1L1 6L6 6L6 1ZM2 2L2 5L5 5L5 2ZM14 0L14 7L21 7L21 0ZM15 1L15 6L20 6L20 1ZM16 2L16 5L19 5L19 2ZM0 14L0 21L7 21L7 14ZM1 15L1 20L6 20L6 15ZM2 16L2 19L5 19L5 16Z" fill="#000000"/></g></g></svg>
