<?xml version="1.0" encoding="UTF-8"?>
<svg xmlns="http://www.w3.org/2000/svg" version="1.1" width="100" height="100" viewBox="0 0 100 100"><rect x="0" y="0" width="100" height="100" fill="#ffffff"/><g transform="scale(4.762)"><g transform="translate(0,0)"><path fill-rule="evenodd" d="M8 0L8 1L9 1L9 0ZM10 0L10 2L8 2L8 5L9 5L9 6L8 6L8 7L9 7L9 6L10 6L10 7L11 7L11 8L8 8L8 10L9 10L9 11L10 11L10 12L12 12L12 13L9 13L9 12L8 12L8 11L7 11L7 10L6 10L6 11L5 11L5 9L4 9L4 8L0 8L0 9L4 9L4 11L5 11L5 12L3 12L3 10L2 10L2 12L1 12L1 13L8 13L8 14L10 14L10 15L9 15L9 16L10 16L10 15L13 15L13 16L12 16L12 17L13 17L13 16L14 16L14 14L15 14L15 16L16 16L16 15L17 15L17 17L18 17L18 18L17 18L17 20L16 20L16 21L17 21L17 20L18 20L18 21L19 21L19 20L18 20L18 18L20 18L20 17L19 17L19 16L21 16L21 15L19 15L19 14L18 14L18 11L16 11L16 10L17 10L17 9L18 9L18 10L19 10L19 11L21 11L21 8L20 8L20 10L19 10L19 8L16 8L16 10L15 10L15 12L14 12L14 13L13 13L13 12L12 12L12 10L13 10L13 9L14 9L14 8L13 8L13 5L12 5L12 4L13 4L13 3L12 3L12 1L13 1L13 0ZM10 2L10 4L9 4L9 5L11 5L11 4L12 4L12 3L11 3L11 2ZM11 6L11 7L12 7L12 6ZM6 8L6 9L7 9L7 8ZM9 9L9 10L10 10L10 11L11 11L11 9ZM6 11L6 12L7 12L7 11ZM15 12L15 14L16 14L16 13L17 13L17 12ZM19 12L19 13L21 13L21 12ZM12 13L12 14L13 14L13 13ZM17 14L17 15L18 15L18 14ZM8 17L8 21L10 21L10 20L9 20L9 19L10 19L10 18L11 18L11 17ZM14 17L14 18L12 18L12 19L11 19L11 21L15 21L15 18L16 18L16 17ZM20 19L20 20L21 20L21 19ZM0 0L0 7L7 7L7 0ZM1 1L1 6L6 6L6 1ZM2 2L2 5L5 5L5 2ZM14 0L14 7L21 7L21 0ZM15 1L15 6L20 6L20 1ZM16 2L16 5L19 5L19 2ZM0 14L0 21L7 21L7 14ZM1 15L1 20L6 20L6 15ZM2 16L2 19L5 19L5 16Z" fill="#000000"/></g></g></svg>
