<?xml version="1.0" encoding="UTF-8"?>
<svg xmlns="http://www.w3.org/2000/svg" version="1.1" width="100" height="100" viewBox="0 0 100 100"><rect x="0" y="0" width="100" height="100" fill="#ffffff"/><g transform="scale(4.762)"><g transform="translate(0,0)"><path fill-rule="evenodd" d="M9 0L9 1L8 1L8 2L9 2L9 3L8 3L8 4L9 4L9 3L10 3L10 2L9 2L9 1L10 1L10 0ZM12 0L12 1L11 1L11 2L12 2L12 1L13 1L13 0ZM11 3L11 4L10 4L10 5L8 5L8 7L9 7L9 6L10 6L10 8L6 8L6 9L5 9L5 8L0 8L0 10L1 10L1 9L4 9L4 10L2 10L2 11L0 11L0 12L1 12L1 13L2 13L2 11L3 11L3 13L5 13L5 12L6 12L6 13L8 13L8 15L9 15L9 16L8 16L8 21L12 21L12 20L10 20L10 19L9 19L9 16L12 16L12 18L11 18L11 19L12 19L12 18L13 18L13 19L15 19L15 21L16 21L16 19L15 19L15 18L17 18L17 19L18 19L18 20L19 20L19 21L20 21L20 20L19 20L19 17L16 17L16 16L19 16L19 15L20 15L20 17L21 17L21 15L20 15L20 14L21 14L21 13L18 13L18 14L17 14L17 13L16 13L16 12L14 12L14 11L15 11L15 10L14 10L14 11L13 11L13 12L14 12L14 13L12 13L12 12L11 12L11 11L12 11L12 10L13 10L13 9L14 9L14 8L13 8L13 4L12 4L12 3ZM11 5L11 7L12 7L12 5ZM10 8L10 11L11 11L11 10L12 10L12 8ZM15 8L15 9L16 9L16 10L17 10L17 12L19 12L19 11L20 11L20 12L21 12L21 11L20 11L20 10L21 10L21 9L20 9L20 8L19 8L19 9L20 9L20 10L17 10L17 9L18 9L18 8L17 8L17 9L16 9L16 8ZM6 9L6 10L8 10L8 13L9 13L9 15L12 15L12 14L11 14L11 12L10 12L10 13L9 13L9 10L8 10L8 9ZM4 10L4 11L5 11L5 10ZM6 11L6 12L7 12L7 11ZM14 13L14 14L15 14L15 15L14 15L14 16L13 16L13 17L14 17L14 16L16 16L16 15L17 15L17 14L15 14L15 13ZM18 14L18 15L19 15L19 14ZM0 0L0 7L7 7L7 0ZM1 1L1 6L6 6L6 1ZM2 2L2 5L5 5L5 2ZM14 0L14 7L21 7L21 0ZM15 1L15 6L20 6L20 1ZM16 2L16 5L19 5L19 2ZM0 14L0 21L7 21L7 14ZM1 15L1 20L6 20L6 15ZM2 16L2 19L5 19L5 16Z" fill="#000000"/></g></g></svg>
